<svg width="12" height="18" viewBox="0 0 12 18" fill="none" xmlns="http://www.w3.org/2000/svg">
<path d="M11.8812 4.72309V1.81193C11.8812 1.46531 11.7435 1.13289 11.4984 0.887793C11.2533 0.642698 10.9209 0.505005 10.5743 0.505005H1.42582C1.0792 0.505005 0.74678 0.642698 0.501685 0.887793C0.25659 1.13289 0.118896 1.46531 0.118896 1.81193V4.7525C0.119338 4.95532 0.166771 5.15527 0.257472 5.33667C0.348174 5.51808 0.479678 5.676 0.641665 5.79804L4.91121 9L0.641665 12.202C0.479678 12.324 0.348174 12.4819 0.257472 12.6633C0.166771 12.8447 0.119338 13.0447 0.118896 13.2475V16.1881C0.118896 16.5347 0.25659 16.8671 0.501685 17.1122C0.74678 17.3573 1.0792 17.495 1.42582 17.495H10.5743C10.9209 17.495 11.2533 17.3573 11.4984 17.1122C11.7435 16.8671 11.8812 16.5347 11.8812 16.1881V13.2769C11.8807 13.0749 11.8337 12.8757 11.7437 12.6947C11.6538 12.5138 11.5233 12.3561 11.3625 12.2338L7.08397 9L11.3625 5.76618C11.5233 5.64388 11.6538 5.48615 11.7437 5.30524C11.8337 5.12434 11.8807 4.92513 11.8812 4.72309ZM10.5743 1.81193V3.77231H1.42582V1.81193H10.5743ZM10.5743 16.1881H1.42582V13.2475L6.00004 9.81682L10.5743 13.2761V16.1881Z" fill="#EEFFF6"/>
</svg>
