<svg width="24" height="24" viewBox="0 0 24 24" fill="none" xmlns="http://www.w3.org/2000/svg">
<path d="M13.2336 0.00012207C14.5835 0.00372189 15.2687 0.0109215 15.8603 0.0277207L16.0931 0.0361202C16.3619 0.0457197 16.627 0.0577191 16.9474 0.0721183C18.2242 0.132115 19.0953 0.333705 19.8597 0.63009C20.6516 0.934874 21.3188 1.34765 21.986 2.01362C22.5961 2.61346 23.0683 3.33906 23.3695 4.13991C23.6659 4.90427 23.8675 5.77543 23.9275 7.05336C23.9419 7.37254 23.9539 7.63773 23.9635 7.90772L23.9707 8.14051C23.9887 8.73088 23.9959 9.41604 23.9983 10.766L23.9995 11.6611V13.233C24.0024 14.1083 23.9932 14.9835 23.9719 15.8585L23.9647 16.0913C23.9551 16.3613 23.9431 16.6265 23.9287 16.9457C23.8687 18.2236 23.6647 19.0935 23.3695 19.8591C23.0691 20.6604 22.5969 21.3862 21.986 21.9854C21.386 22.5954 20.6604 23.0674 19.8597 23.3689C19.0953 23.6653 18.2242 23.8669 16.9474 23.9269C16.6627 23.9403 16.3779 23.9523 16.0931 23.9629L15.8603 23.9701C15.2687 23.9869 14.5835 23.9953 13.2336 23.9977L12.3385 23.9989H10.7677C9.8921 24.0019 9.01646 23.9927 8.14108 23.9713L7.90829 23.9641C7.62343 23.9533 7.33864 23.9409 7.05393 23.9269C5.7772 23.8669 4.90604 23.6653 4.14048 23.3689C3.33972 23.0682 2.61442 22.596 2.01539 21.9854C1.40467 21.3858 0.932114 20.6601 0.63066 19.8591C0.334275 19.0947 0.132686 18.2236 0.0726886 16.9457C0.0593199 16.6609 0.0473204 16.3761 0.0366905 16.0913L0.0306909 15.8585C0.00857853 14.9835 -0.00142203 14.1083 0.000692365 13.233V10.766C-0.00265662 9.89074 0.00614386 9.0155 0.0270911 8.14051L0.0354906 7.90772C0.0450901 7.63773 0.0570895 7.37254 0.0714888 7.05336C0.131486 5.77543 0.333075 4.90547 0.62946 4.13991C0.930781 3.33824 1.40428 2.61242 2.01659 2.01362C2.61547 1.40342 3.34029 0.931259 4.14048 0.63009C4.90604 0.333705 5.776 0.132115 7.05393 0.0721183C7.37311 0.0577191 7.6395 0.0457197 7.90829 0.0361202L8.14108 0.0289205C9.01606 0.00760094 9.8913 -0.00159948 10.7665 0.00132192L13.2336 0.00012207ZM12.0001 5.99981C10.4089 5.99981 8.88282 6.63192 7.75765 7.75708C6.63249 8.88225 6.00038 10.4083 6.00038 11.9995C6.00038 13.5907 6.63249 15.1168 7.75765 16.2419C8.88282 17.3671 10.4089 17.9992 12.0001 17.9992C13.5913 17.9992 15.1173 17.3671 16.2425 16.2419C17.3677 15.1168 17.9998 13.5907 17.9998 11.9995C17.9998 10.4083 17.3677 8.88225 16.2425 7.75708C15.1173 6.63192 13.5913 5.99981 12.0001 5.99981ZM12.0001 8.39969C12.4728 8.39961 12.9409 8.49265 13.3777 8.67348C13.8145 8.85432 14.2114 9.11941 14.5457 9.45363C14.88 9.78785 15.1453 10.1846 15.3262 10.6214C15.5072 11.0581 15.6004 11.5262 15.6005 11.9989C15.6006 12.4716 15.5075 12.9398 15.3267 13.3765C15.1459 13.8133 14.8808 14.2102 14.5466 14.5445C14.2123 14.8789 13.8155 15.1441 13.3788 15.3251C12.9421 15.5061 12.474 15.5992 12.0013 15.5993C11.0465 15.5993 10.1309 15.2201 9.45582 14.545C8.78073 13.8699 8.40146 12.9542 8.40146 11.9995C8.40146 11.0448 8.78073 10.1291 9.45582 9.45405C10.1309 8.77896 11.0465 8.39969 12.0013 8.39969M18.301 4.19991C17.9032 4.19991 17.5216 4.35793 17.2403 4.63922C16.9591 4.92051 16.801 5.30203 16.801 5.69983C16.801 6.09763 16.9591 6.47915 17.2403 6.76044C17.5216 7.04173 17.9032 7.19975 18.301 7.19975C18.6988 7.19975 19.0803 7.04173 19.3616 6.76044C19.6429 6.47915 19.8009 6.09763 19.8009 5.69983C19.8009 5.30203 19.6429 4.92051 19.3616 4.63922C19.0803 4.35793 18.6988 4.19991 18.301 4.19991Z" fill="#00462B"/>
<path fill-rule="evenodd" clip-rule="evenodd" d="M12.0001 5.99981C10.4089 5.99981 8.88282 6.63192 7.75765 7.75708C6.63249 8.88225 6.00038 10.4083 6.00038 11.9995C6.00038 13.5907 6.63249 15.1168 7.75765 16.2419C8.88282 17.3671 10.4089 17.9992 12.0001 17.9992C13.5913 17.9992 15.1173 17.3671 16.2425 16.2419C17.3677 15.1168 17.9998 13.5907 17.9998 11.9995C17.9998 10.4083 17.3677 8.88225 16.2425 7.75708C15.1173 6.63192 13.5913 5.99981 12.0001 5.99981ZM13.3777 8.67348C12.9413 8.4928 12.4736 8.39977 12.0013 8.39969C11.0465 8.39969 10.1309 8.77896 9.45582 9.45405C8.78073 10.1291 8.40146 11.0448 8.40146 11.9995C8.40146 12.9542 8.78073 13.8699 9.45582 14.545C10.1309 15.2201 11.0465 15.5993 12.0013 15.5993C12.474 15.5992 12.9421 15.5061 13.3788 15.3251C13.8155 15.1441 14.2123 14.8789 14.5466 14.5445C14.8808 14.2102 15.1459 13.8133 15.3267 13.3765C15.5075 12.9398 15.6006 12.4716 15.6005 11.9989C15.6004 11.5262 15.5072 11.0581 15.3262 10.6214C15.1453 10.1846 14.88 9.78785 14.5457 9.45363C14.2114 9.11941 13.8145 8.85432 13.3777 8.67348Z" fill="#00462B"/>
<path d="M18.301 4.19991C17.9032 4.19991 17.5216 4.35793 17.2403 4.63922C16.9591 4.92051 16.801 5.30203 16.801 5.69983C16.801 6.09763 16.9591 6.47915 17.2403 6.76044C17.5216 7.04173 17.9032 7.19975 18.301 7.19975C18.6988 7.19975 19.0803 7.04173 19.3616 6.76044C19.6429 6.47915 19.8009 6.09763 19.8009 5.69983C19.8009 5.30203 19.6429 4.92051 19.3616 4.63922C19.0803 4.35793 18.6988 4.19991 18.301 4.19991Z" fill="#00462B"/>
<path d="M13.3014 8.46087V10.4698H15.7859L15.3925 13.1761H13.3014V19.4111C12.8822 19.4692 12.4532 19.4996 12.0178 19.4996C11.5152 19.4996 11.0217 19.4595 10.5411 19.382V13.1761H8.24976V10.4698H10.5411V8.01178C10.5411 6.48679 11.7769 5.25 13.3021 5.25V5.25129C13.3066 5.25129 13.3105 5.25 13.315 5.25H15.7865V7.59047H14.1716C13.6916 7.59047 13.3021 7.98011 13.3021 8.46023L13.3014 8.46087Z" fill="#FFFEFC"/>
</svg>
