<svg width="36" height="39" viewBox="0 0 36 39" fill="none" xmlns="http://www.w3.org/2000/svg">
<path d="M11.3559 14.9203L3.07599 6.60917C2.99268 6.60917 2.94629 6.60917 2.86298 6.60917L0.0767688 9.3876C0.0767688 9.47077 0.0767688 9.51709 0.0767688 9.60025L7.34858 16.8671C7.44266 16.961 7.37601 17.1215 7.24273 17.1215L0.337129 17.1182C0.151904 17.1182 0.00163932 17.2679 0.00163932 17.4529L0 21.047C0 21.2319 0.149949 21.3819 0.335174 21.3819L7.22803 21.3852C7.36132 21.3852 7.42828 21.5457 7.33387 21.6396C5.73545 23.223 3.30138 25.675 2.42589 26.536C1.29755 27.6628 0.903254 28.0519 0.0555305 28.8989C-0.000657752 28.955 -0.00425066 29.0457 0.0489975 29.1047C0.319812 29.4054 1.16035 30.1944 1.85258 30.9077C2.29098 31.3431 2.55264 31.6102 2.89696 31.9507C2.96491 32.0166 2.94238 32.0064 2.96916 31.9843C3.77279 31.1852 9.84274 25.1284 10.0995 24.8756C10.3961 24.5648 11.1942 23.815 11.3954 23.5645C12.3098 22.3669 12.8586 20.8761 12.8593 19.2551C12.8599 17.6166 12.2873 16.1251 11.3559 14.9203Z" fill="#4BEB90"/>
<path d="M34.2235 17.2777L34.1618 17.1769C34.0889 17.0638 33.9805 16.9979 33.8639 16.9963L33.2533 16.9969C33.2477 16.9969 33.2425 16.9956 33.237 16.9956L22.9225 16.9901C22.7895 16.9901 22.7229 16.8293 22.817 16.7357L30.1143 9.4584C30.1267 9.44568 30.1375 9.4323 30.1482 9.4186L30.5589 9.00864C30.6311 8.93656 30.6634 8.83317 30.6487 8.70858L30.064 6.27488C30.0267 6.11898 29.8912 5.98397 29.734 5.94614L27.4545 5.40701L27.3395 5.37929C27.2075 5.35091 27.0843 5.3806 27.0007 5.46181L26.5633 5.8995C26.5617 5.90113 26.5597 5.90244 26.5581 5.90407L19.2608 13.1813C19.1667 13.2753 19.006 13.2087 19.006 13.0757L19.0099 2.77796C19.0099 2.7623 19.0079 2.74698 19.0063 2.73165V2.14655C19.0063 2.04479 18.956 1.94857 18.8573 1.87095L16.7202 0.562783C16.5837 0.478964 16.3922 0.478964 16.2541 0.563436L14.2604 1.79137L14.1594 1.85302C14.0461 1.92607 13.9801 2.03401 13.9785 2.15045L13.9791 2.77242V2.77535V3.83206C13.9791 3.83499 13.9785 3.83793 13.9785 3.84086L13.9791 4.33204L13.9628 36.2209C13.9628 36.2395 13.9641 36.2581 13.9664 36.276V36.8533C13.9664 36.9551 14.0167 37.0513 14.1153 37.1289L16.2524 38.4371C16.3207 38.4788 16.4024 38.5 16.4844 38.5C16.5664 38.5 16.6493 38.4788 16.7183 38.4367L18.712 37.2088L18.8129 37.1472C18.9263 37.0741 18.9923 36.9661 18.9939 36.8497L18.9932 36.2411C18.9932 36.2353 18.9945 36.2297 18.9945 36.2242L19.0001 25.9261C19.0001 25.7934 19.1612 25.7269 19.2552 25.8208L26.5443 33.1065C26.5581 33.1202 26.5728 33.1323 26.5881 33.1437L26.9952 33.5501C27.0559 33.6108 27.1392 33.6434 27.2385 33.6434C27.2572 33.6434 27.2761 33.6424 27.2957 33.6401L29.7334 33.0563C29.8892 33.0191 30.0248 32.8841 30.0626 32.7269L30.6027 30.4511L30.6304 30.3363C30.6592 30.2048 30.6291 30.0815 30.5478 29.9981L30.1077 29.5597L30.1048 29.5565L22.814 22.2694C22.72 22.1755 22.7866 22.015 22.9199 22.015L33.236 22.0205C33.2546 22.0205 33.2732 22.0189 33.2915 22.0166H33.8684C33.9703 22.0166 34.0667 21.9664 34.1445 21.8679L35.4548 19.7343C35.5387 19.5979 35.5387 19.4068 35.4544 19.2688L34.2235 17.2777Z" fill="#4BEB90"/>
</svg>
