<svg width="24" height="25" viewBox="0 0 24 25" fill="none" xmlns="http://www.w3.org/2000/svg">
<path d="M20.7273 0.5H3.27273C1.46525 0.5 0 1.96525 0 3.77273V21.2273C0 23.0347 1.46525 24.5 3.27273 24.5H20.7273C22.5347 24.5 24 23.0347 24 21.2273V3.77273C24 1.96525 22.5347 0.5 20.7273 0.5Z" fill="#0077B5"/>
<path d="M8.6456 7.04545C8.6456 7.45001 8.52563 7.84547 8.30088 8.18185C8.07612 8.51822 7.75666 8.78039 7.3829 8.93521C7.00915 9.09002 6.59787 9.13053 6.20109 9.05161C5.80432 8.97268 5.43985 8.77787 5.15379 8.49181C4.86773 8.20575 4.67292 7.84128 4.59399 7.4445C4.51507 7.04772 4.55557 6.63645 4.71039 6.26269C4.8652 5.88894 5.12738 5.56948 5.46375 5.34472C5.80012 5.11996 6.19559 5 6.60014 5C7.14263 5 7.6629 5.2155 8.0465 5.5991C8.4301 5.9827 8.6456 6.50297 8.6456 7.04545Z" fill="white"/>
<path d="M8.18179 10.4545V19.4914C8.18215 19.558 8.16933 19.6241 8.14406 19.6858C8.1188 19.7475 8.08159 19.8036 8.03458 19.8509C7.98757 19.8981 7.93167 19.9356 7.87011 19.9612C7.80856 19.9868 7.74255 20 7.67588 20H5.51997C5.4533 20.0002 5.38726 19.9872 5.32563 19.9617C5.26401 19.9363 5.20801 19.899 5.16087 19.8518C5.11373 19.8047 5.07637 19.7487 5.05094 19.6871C5.02552 19.6254 5.01252 19.5594 5.0127 19.4927V10.4545C5.0127 10.32 5.06614 10.191 5.16127 10.0958C5.25641 10.0007 5.38543 9.94727 5.51997 9.94727H7.67588C7.81018 9.94763 7.93886 10.0012 8.03369 10.0963C8.12853 10.1914 8.18179 10.3202 8.18179 10.4545Z" fill="white"/>
<path d="M19.4512 15.1591V19.5336C19.4514 19.5949 19.4395 19.6556 19.4161 19.7123C19.3927 19.769 19.3584 19.8204 19.315 19.8638C19.2717 19.9071 19.2202 19.9415 19.1635 19.9648C19.1069 19.9882 19.0462 20.0001 18.9849 20H16.6667C16.6054 20.0001 16.5447 19.9882 16.488 19.9648C16.4313 19.9415 16.3799 19.9071 16.3365 19.8638C16.2932 19.8204 16.2588 19.769 16.2355 19.7123C16.2121 19.6556 16.2001 19.5949 16.2003 19.5336V15.2941C16.2003 14.6613 16.3858 12.5232 14.5462 12.5232C13.1212 12.5232 12.8308 13.9863 12.7735 14.6436V19.5336C12.7735 19.6561 12.7253 19.7737 12.6393 19.861C12.5533 19.9483 12.4365 19.9982 12.314 20H10.0749C10.0137 20 9.95311 19.9879 9.8966 19.9644C9.8401 19.941 9.78877 19.9066 9.74558 19.8633C9.70238 19.82 9.66816 19.7685 9.64487 19.712C9.62158 19.6554 9.60969 19.5948 9.60987 19.5336V10.415C9.60969 10.3538 9.62158 10.2932 9.64487 10.2366C9.66816 10.18 9.70238 10.1286 9.74558 10.0853C9.78877 10.042 9.8401 10.0076 9.8966 9.98413C9.95311 9.96068 10.0137 9.9486 10.0749 9.9486H12.314C12.4376 9.9486 12.5563 9.99774 12.6437 10.0852C12.7312 10.1727 12.7803 10.2913 12.7803 10.415V11.2032C13.3094 10.4095 14.0935 9.79724 15.7667 9.79724C19.473 9.79724 19.4512 13.2582 19.4512 15.1591Z" fill="white"/>
</svg>
