<svg width="114" height="38" viewBox="0 0 114 38" fill="none" xmlns="http://www.w3.org/2000/svg">
<path d="M60.4571 9.64598V6.14906C60.4571 6.06687 60.3901 6 60.3078 6H40.4299C40.3475 6 40.2806 6.06687 40.2806 6.14906V9.64598C40.2806 9.72817 40.3475 9.79502 40.4299 9.79502H47.8804C47.9627 9.79502 48.0297 9.86189 48.0297 9.94408V30.6657C48.0297 30.7479 48.0966 30.8148 48.179 30.8148H52.2666C52.349 30.8148 52.4159 30.7479 52.4159 30.6657V9.94408C52.4159 9.86189 52.4829 9.79502 52.5652 9.79502H60.3081C60.3904 9.79502 60.4571 9.72817 60.4571 9.64598Z" fill="#EEFFF6"/>
<path d="M72.2968 12.8605H68.5015C68.4191 12.8605 68.3521 12.9273 68.3521 13.0095V23.2828C68.3521 23.9775 68.2761 24.6258 68.1255 25.2286C67.9736 25.8313 67.7233 26.3453 67.3741 26.7745C67.0245 27.2037 66.5698 27.5452 66.0115 27.7992C65.4529 28.0546 64.7542 28.1818 63.9149 28.1818C62.8212 28.1818 61.9702 27.8576 61.3649 27.2083C60.7596 26.5602 60.4571 25.4494 60.4571 23.8744V13.0102C60.4571 12.928 60.3901 12.8611 60.3078 12.8611H56.8052C56.7228 12.8611 56.6559 12.928 56.6559 13.0102V24.2658C56.6559 26.6303 57.1808 28.398 58.2321 29.5689C59.2817 30.7394 60.9853 31.3249 63.339 31.3249C64.3318 31.3249 65.3069 31.0519 66.2647 30.5075C67.2225 29.9632 67.9445 29.2375 68.4299 28.3341H68.4985V30.6664C68.4985 30.7486 68.5655 30.8154 68.6478 30.8154H72.2968C72.3791 30.8154 72.4461 30.7486 72.4461 30.6664V13.0102C72.4461 12.928 72.3791 12.8605 72.2968 12.8605Z" fill="#EEFFF6"/>
<path d="M106.277 13.9028C105.144 12.884 103.597 12.3745 101.633 12.3745C100.455 12.3745 99.3818 12.6576 98.4109 13.2254C97.44 13.7932 96.655 14.574 96.0539 15.5698L95.9853 15.4996V13.0095C95.9853 12.9273 95.9183 12.8605 95.836 12.8605H92.3335C92.2511 12.8605 92.1841 12.9273 92.1841 13.0095V24.4651H92.1829V27.1968C92.1829 27.2089 92.1816 27.2213 92.1789 27.233C92.0757 27.6985 91.6588 28.0458 91.1607 28.0458C90.6625 28.0458 90.2192 27.675 90.1343 27.1874V26.1437H90.1372V18.4992C90.1372 16.4585 89.5714 14.9259 88.4398 13.9041C87.3065 12.884 85.7597 12.3729 83.7961 12.3729C82.6178 12.3729 81.5446 12.6576 80.5738 13.2254C79.6029 13.7945 78.8179 14.5786 78.2168 15.5756L78.1482 15.5055V13.0095C78.1482 12.9273 78.0812 12.8605 77.9989 12.8605H74.4963C74.414 12.8605 74.347 12.9273 74.347 13.0095V30.6657C74.347 30.7479 74.414 30.8148 74.4963 30.8148H78.1453C78.2276 30.8148 78.2945 30.7479 78.2945 30.6657V20.2522C78.2945 19.6042 78.3997 18.9897 78.6088 18.4115C78.8179 17.8319 79.109 17.3283 79.4817 16.8991C79.8544 16.4716 80.3092 16.1356 80.8443 15.892C81.3794 15.648 81.986 15.527 82.6615 15.527C83.8487 15.527 84.7215 15.8454 85.2815 16.4833C85.8401 17.1196 86.1426 18.1443 86.1893 19.5575V24.7902C86.1893 25.1056 86.188 25.4314 86.1893 25.7788V26.1437H86.1906V26.4138C86.1906 27.8413 86.8012 29.1257 87.7753 30.0245C87.7825 30.0314 87.79 30.0379 87.7972 30.0444C87.8279 30.0725 87.858 30.1015 87.8897 30.1289H87.891C87.9171 30.1517 87.9442 30.1739 87.9714 30.1961C87.9903 30.212 88.0096 30.2277 88.0288 30.2434C88.054 30.2642 88.0791 30.2851 88.1043 30.304C88.1043 30.304 88.1085 30.307 88.1102 30.3083C88.1481 30.3389 88.1847 30.3666 88.2242 30.3944H88.2255C88.3088 30.4557 88.3937 30.5141 88.4813 30.5695C88.5688 30.625 88.6597 30.6775 88.7505 30.7287C88.9638 30.8461 89.1872 30.9478 89.4188 31.033C89.6504 31.1181 89.8903 31.1863 90.1366 31.2365C90.4567 31.3007 90.7873 31.3343 91.1264 31.3343C91.486 31.3343 91.8415 31.2949 92.1819 31.2218H92.1848C92.2887 31.1993 92.3915 31.1732 92.4935 31.1442C92.5954 31.1152 92.6957 31.0832 92.7943 31.048C92.8541 31.0261 92.9142 31.0043 92.974 30.9808C93.091 30.9341 93.2079 30.8829 93.3206 30.8262C93.3729 30.8021 93.4248 30.7753 93.4758 30.7476C93.4826 30.744 93.4895 30.7407 93.4964 30.7368C93.6055 30.6794 93.713 30.6178 93.8165 30.5506C93.8309 30.5415 93.8456 30.5294 93.8599 30.5199C95.1252 29.6971 96 28.3253 96.1098 26.749C96.1232 26.6352 96.1323 26.5227 96.1323 26.4138C96.1323 25.722 96.131 25.1307 96.131 24.4651V20.2186C96.131 19.5706 96.2362 18.9561 96.4453 18.3779C96.6543 17.7983 96.9454 17.2947 97.3181 16.8655C97.6909 16.438 98.1456 16.102 98.6807 15.8584C99.2158 15.6161 99.8224 15.4934 100.498 15.4934C101.685 15.4934 102.558 15.8118 103.118 16.4497C103.677 17.086 103.979 18.1108 104.026 19.5239V30.6657C104.026 30.7479 104.093 30.8148 104.175 30.8148H107.824C107.906 30.8148 107.973 30.7479 107.973 30.6657V18.4861C107.973 16.45 107.409 14.9214 106.277 13.9028Z" fill="#EEFFF6"/>
<path d="M113.82 12.8605H110.171C110.088 12.8605 110.021 12.9272 110.021 13.0095V30.6657C110.021 30.748 110.088 30.8148 110.171 30.8148H113.82C113.902 30.8148 113.969 30.748 113.969 30.6657V13.0095C113.969 12.9272 113.902 12.8605 113.82 12.8605Z" fill="#EEFFF6"/>
<path d="M113.82 6H110.171C110.088 6 110.021 6.06674 110.021 6.14906V9.64631C110.021 9.72863 110.088 9.79536 110.171 9.79536H113.82C113.902 9.79536 113.969 9.72863 113.969 9.64631V6.14906C113.969 6.06674 113.902 6 113.82 6Z" fill="#EEFFF6"/>
<path d="M11.3559 14.4203L3.07599 6.10917C2.99268 6.10917 2.94629 6.10917 2.86298 6.10917L0.0767688 8.8876C0.0767688 8.97077 0.0767688 9.01709 0.0767688 9.10025L7.34858 16.3671C7.44266 16.461 7.37601 16.6215 7.24273 16.6215L0.337129 16.6182C0.151904 16.6182 0.00163932 16.7679 0.00163932 16.9529L0 20.547C0 20.7319 0.149949 20.8819 0.335174 20.8819L7.22803 20.8852C7.36132 20.8852 7.42828 21.0457 7.33387 21.1396C5.73545 22.723 3.30138 25.175 2.42589 26.036C1.29755 27.1628 0.903254 27.5519 0.0555305 28.3989C-0.000657752 28.455 -0.00425066 28.5457 0.0489975 28.6047C0.319812 28.9054 1.16035 29.6944 1.85258 30.4077C2.29098 30.8431 2.55264 31.1102 2.89696 31.4507C2.96491 31.5166 2.94238 31.5064 2.96916 31.4843C3.77279 30.6852 9.84274 24.6284 10.0995 24.3756C10.3961 24.0648 11.1942 23.315 11.3954 23.0645C12.3098 21.8669 12.8586 20.3761 12.8593 18.7551C12.8599 17.1166 12.2873 15.6251 11.3559 14.4203Z" fill="#4BEB90"/>
<path d="M34.2235 16.7777L34.1618 16.6769C34.0889 16.5638 33.9805 16.4979 33.8639 16.4963L33.2533 16.4969C33.2477 16.4969 33.2425 16.4956 33.237 16.4956L22.9225 16.4901C22.7895 16.4901 22.7229 16.3293 22.817 16.2357L30.1143 8.9584C30.1267 8.94568 30.1375 8.9323 30.1482 8.9186L30.5589 8.50864C30.6311 8.43656 30.6634 8.33317 30.6487 8.20858L30.064 5.77488C30.0267 5.61898 29.8912 5.48397 29.734 5.44614L27.4545 4.90701L27.3395 4.87929C27.2075 4.85091 27.0843 4.8806 27.0007 4.96181L26.5633 5.3995C26.5617 5.40113 26.5597 5.40244 26.5581 5.40407L19.2608 12.6813C19.1667 12.7753 19.006 12.7087 19.006 12.5757L19.0099 2.27796C19.0099 2.2623 19.0079 2.24698 19.0063 2.23165V1.64655C19.0063 1.54479 18.956 1.44857 18.8573 1.37095L16.7202 0.0627829C16.5837 -0.0210365 16.3922 -0.0210358 16.2541 0.0634358L14.2604 1.29137L14.1594 1.35302C14.0461 1.42607 13.9801 1.53401 13.9785 1.65045L13.9791 2.27242V2.27535V3.33206C13.9791 3.33499 13.9785 3.33793 13.9785 3.34086L13.9791 3.83204L13.9628 35.7209C13.9628 35.7395 13.9641 35.7581 13.9664 35.776V36.3533C13.9664 36.4551 14.0167 36.5513 14.1153 36.6289L16.2524 37.9371C16.3207 37.9788 16.4024 38 16.4844 38C16.5664 38 16.6493 37.9788 16.7183 37.9367L18.712 36.7088L18.8129 36.6472C18.9263 36.5741 18.9923 36.4661 18.9939 36.3497L18.9932 35.7411C18.9932 35.7353 18.9945 35.7297 18.9945 35.7242L19.0001 25.4261C19.0001 25.2934 19.1612 25.2269 19.2552 25.3208L26.5443 32.6065C26.5581 32.6202 26.5728 32.6323 26.5881 32.6437L26.9952 33.0501C27.0559 33.1108 27.1392 33.1434 27.2385 33.1434C27.2572 33.1434 27.2761 33.1424 27.2957 33.1401L29.7334 32.5563C29.8892 32.5191 30.0248 32.3841 30.0626 32.2269L30.6027 29.9511L30.6304 29.8363C30.6592 29.7048 30.6291 29.5815 30.5478 29.4981L30.1077 29.0597L30.1048 29.0565L22.814 21.7694C22.72 21.6755 22.7866 21.515 22.9199 21.515L33.236 21.5205C33.2546 21.5205 33.2732 21.5189 33.2915 21.5166H33.8684C33.9703 21.5166 34.0667 21.4664 34.1445 21.3679L35.4548 19.2343C35.5387 19.0979 35.5387 18.9068 35.4544 18.7688L34.2235 16.7777Z" fill="#4BEB90"/>
</svg>
