<svg width="26" height="21" viewBox="0 0 26 21" fill="none" xmlns="http://www.w3.org/2000/svg">
<path d="M1.76813 20.2553H5.90576V10.2069L3.19637 5.47577L-0.00512695 5.77369V18.4821C-0.00512695 19.4618 0.788416 20.2553 1.76813 20.2553Z" fill="#0085F7"/>
<path d="M20.0898 20.2553H24.2275C25.2072 20.2553 26.0007 19.4618 26.0007 18.4821V5.77369L22.8039 5.47577L20.0899 10.2069V20.2553H20.0898Z" fill="#00A94B"/>
<path d="M20.094 2.52271L17.6636 7.16059L20.094 10.2069L26.0049 5.77369V3.40937C26.0049 1.2179 23.5031 -0.0337238 21.7491 1.28145L20.094 2.52271Z" fill="#FFBC00"/>
<path fill-rule="evenodd" clip-rule="evenodd" d="M5.90557 10.2068L3.5896 5.31463L5.90557 2.52271L12.9986 7.84247L20.0916 2.52271V10.2068L12.9986 15.5266L5.90557 10.2068Z" fill="#FF4131"/>
<path d="M-0.00512695 3.40931V5.77363L5.90576 10.2068V2.52265L4.25071 1.28139C2.49665 -0.0337848 -0.00512695 1.21784 -0.00512695 3.40931Z" fill="#E51C19"/>
</svg>
