<svg width="21" height="22" viewBox="0 0 21 22" fill="none" xmlns="http://www.w3.org/2000/svg">
<path d="M20.5668 1.36063C20.3782 1.17213 20.1427 1.03732 19.8846 0.970087C19.6266 0.902855 19.3553 0.905631 19.0987 0.97813H19.0846L1.09023 6.43813C0.798096 6.52232 0.538445 6.69329 0.345681 6.92839C0.152917 7.16348 0.0361401 7.4516 0.0108254 7.75457C-0.0144894 8.05753 0.0528532 8.36103 0.203929 8.62486C0.355005 8.88868 0.582682 9.10038 0.856788 9.23188L8.81804 13.1094L12.6899 21.0659C12.8103 21.3229 13.0018 21.5401 13.2417 21.6918C13.4816 21.8434 13.7599 21.9233 14.0437 21.9219C14.0868 21.9219 14.1299 21.92 14.173 21.9163C14.4758 21.8917 14.7637 21.7752 14.9983 21.5824C15.2329 21.3895 15.403 21.1295 15.4855 20.8372L20.9418 2.84282C20.9418 2.83813 20.9418 2.83344 20.9418 2.82876C21.0152 2.57278 21.0192 2.30187 20.9533 2.04386C20.8874 1.78585 20.754 1.55003 20.5668 1.36063ZM14.0521 20.4078L14.0474 20.4209V20.4144L10.2918 12.6988L14.7918 8.19876C14.9265 8.05696 15.0005 7.86815 14.998 7.67257C14.9955 7.477 14.9167 7.29015 14.7784 7.15185C14.6401 7.01355 14.4532 6.93474 14.2577 6.93224C14.0621 6.92973 13.8733 7.00373 13.7315 7.13844L9.23148 11.6384L1.51304 7.88282H1.50648H1.5196L19.5055 2.42188L14.0521 20.4078Z" fill="#888888"/>
</svg>
