<svg width="18" height="18" viewBox="0 0 18 18" fill="none" xmlns="http://www.w3.org/2000/svg">
<path d="M17.739 16.4656C16.4458 14.2299 14.4529 12.6268 12.1272 11.8668C13.2776 11.182 14.1714 10.1384 14.6713 8.89644C15.1712 7.65446 15.2496 6.28271 14.8945 4.99186C14.5393 3.701 13.7703 2.56242 12.7054 1.75095C11.6405 0.939479 10.3387 0.5 8.99991 0.5C7.66109 0.5 6.35929 0.939479 5.29442 1.75095C4.22954 2.56242 3.46048 3.701 3.10534 4.99186C2.75019 6.28271 2.8286 7.65446 3.32852 8.89644C3.82845 10.1384 4.72224 11.182 5.87264 11.8668C3.54693 12.6259 1.55407 14.229 0.26087 16.4656C0.213447 16.5429 0.181991 16.629 0.168359 16.7186C0.154727 16.8083 0.159195 16.8998 0.181499 16.9877C0.203804 17.0757 0.243493 17.1582 0.298224 17.2306C0.352956 17.3029 0.421622 17.3636 0.500171 17.4089C0.57872 17.4543 0.66556 17.4835 0.755569 17.4947C0.845577 17.506 0.93693 17.4991 1.02424 17.4745C1.11155 17.4499 1.19304 17.4081 1.26391 17.3514C1.33479 17.2948 1.3936 17.2246 1.43689 17.1449C3.03661 14.3802 5.86415 12.7295 8.99991 12.7295C12.1357 12.7295 14.9632 14.3802 16.5629 17.1449C16.6062 17.2246 16.665 17.2948 16.7359 17.3514C16.8068 17.4081 16.8883 17.4499 16.9756 17.4745C17.0629 17.4991 17.1542 17.506 17.2443 17.4947C17.3343 17.4835 17.4211 17.4543 17.4997 17.4089C17.5782 17.3636 17.6469 17.3029 17.7016 17.2306C17.7563 17.1582 17.796 17.0757 17.8183 16.9877C17.8406 16.8998 17.8451 16.8083 17.8315 16.7186C17.8178 16.629 17.7864 16.5429 17.739 16.4656ZM4.2449 6.6159C4.2449 5.67545 4.52377 4.75612 5.04626 3.97416C5.56875 3.1922 6.31138 2.58274 7.18025 2.22284C8.04911 1.86294 9.00519 1.76878 9.92757 1.95225C10.85 2.13573 11.6972 2.5886 12.3622 3.2536C13.0272 3.9186 13.4801 4.76586 13.6636 5.68825C13.847 6.61063 13.7529 7.5667 13.393 8.43557C13.0331 9.30444 12.4236 10.0471 11.6417 10.5696C10.8597 11.092 9.94037 11.3709 8.99991 11.3709C7.73922 11.3696 6.53054 10.8682 5.6391 9.97672C4.74765 9.08527 4.24624 7.8766 4.2449 6.6159Z" fill="#EEFFF6"/>
</svg>
