<svg width="24" height="25" viewBox="0 0 24 25" fill="none" xmlns="http://www.w3.org/2000/svg">
<path d="M0.468701 24.0828L2.09995 18.1344C1.09214 16.3953 0.562451 14.4172 0.562451 12.3969C0.567139 6.06406 5.7187 0.917188 12.0468 0.917188C15.1171 0.917188 18.0046 2.1125 20.1703 4.28281C22.3406 6.45312 23.5359 9.33594 23.5312 12.4062C23.5265 18.7344 18.3749 23.8859 12.0468 23.8859H12.0421C10.1203 23.8859 8.2312 23.4031 6.55308 22.4891L0.468701 24.0828Z" fill="url(#paint0_linear_133_290)"/>
<path d="M0.0515137 24.5L1.73901 18.3359C0.698389 16.5359 0.154639 14.4875 0.154639 12.3922C0.154639 5.83438 5.4937 0.5 12.0515 0.5C15.2343 0.5 18.2203 1.74219 20.4656 3.9875C22.7109 6.2375 23.9484 9.22344 23.9484 12.4016C23.9437 18.9594 18.6093 24.2938 12.0515 24.2938H12.0468C10.0546 24.2938 8.09995 23.7922 6.36089 22.8453L0.0515137 24.5ZM6.65151 20.6937L7.01245 20.9094C8.5312 21.8094 10.2703 22.2875 12.0468 22.2875H12.0515C17.5031 22.2875 21.9374 17.8531 21.9374 12.4016C21.9374 9.7625 20.9109 7.27812 19.0453 5.40781C17.1796 3.5375 14.6953 2.51094 12.0562 2.51094C6.59995 2.51094 2.16558 6.94531 2.16558 12.3969C2.16558 14.2625 2.68589 16.0813 3.67495 17.6562L3.90933 18.0312L2.91089 21.6781L6.65151 20.6937Z" fill="url(#paint1_linear_133_290)"/>
<path fill-rule="evenodd" clip-rule="evenodd" d="M9.07495 7.41875C8.84995 6.92188 8.61558 6.9125 8.40464 6.90313C8.2312 6.89375 8.03433 6.89844 7.83276 6.89844C7.63589 6.89844 7.31245 6.97344 7.04058 7.26875C6.7687 7.56406 5.99995 8.28594 5.99995 9.74844C5.99995 11.2109 7.06401 12.6266 7.21401 12.8234C7.36401 13.0203 9.27183 16.1188 12.2906 17.3094C14.8031 18.2984 15.314 18.1016 15.8578 18.0547C16.4015 18.0078 17.6156 17.3375 17.864 16.6437C18.1124 15.95 18.1124 15.3547 18.0374 15.2328C17.9624 15.1109 17.7656 15.0359 17.4656 14.8859C17.1703 14.7359 15.7078 14.0187 15.4359 13.9203C15.164 13.8219 14.9671 13.7703 14.7656 14.0703C14.5687 14.3656 13.9968 15.0359 13.8234 15.2328C13.6499 15.4297 13.4765 15.4578 13.1812 15.3078C12.8859 15.1578 11.925 14.8438 10.7906 13.8312C9.90464 13.0437 9.30933 12.0688 9.13589 11.7734C8.96245 11.4781 9.11714 11.3141 9.26714 11.1688C9.39839 11.0375 9.56245 10.8219 9.71245 10.6484C9.86245 10.475 9.90932 10.3531 10.0078 10.1516C10.1062 9.95469 10.0593 9.78125 9.98433 9.63125C9.9187 9.47656 9.34214 8.00938 9.07495 7.41875Z" fill="white"/>
<defs>
<linearGradient id="paint0_linear_133_290" x1="11.9998" y1="24.502" x2="11.9998" y2="0.498349" gradientUnits="userSpaceOnUse">
<stop stop-color="#20B038"/>
<stop offset="1" stop-color="#60D66A"/>
</linearGradient>
<linearGradient id="paint1_linear_133_290" x1="12" y1="24.5" x2="12" y2="0.5" gradientUnits="userSpaceOnUse">
<stop stop-color="#F9F9F9"/>
<stop offset="1" stop-color="white"/>
</linearGradient>
</defs>
</svg>
